<svg width="24" height="21" viewBox="0 0 24 21" fill="none" xmlns="http://www.w3.org/2000/svg">
<path d="M6.37567 1.16602L1.11963 10.4993L6.37567 19.8327H17.1969L22.453 10.4993L17.1969 1.16602H6.37567Z" stroke="#F5F6F6" stroke-width="1.5"/>
<path d="M9.37931 11.9408L9.38822 11.8326H9.27964H8.34144L8.67265 7.76066L8.68144 7.65255H8.57298H8.17298H8.14556L8.12197 7.66654L6.7953 8.4532L6.75099 8.47948L6.74666 8.53083L6.69333 9.16416L6.67721 9.35558L6.84326 9.25899L7.69815 8.7617L7.45395 11.8326H6.51298H6.42087L6.41331 11.9243L6.36665 12.491L6.35773 12.5992H6.46631H9.23298H9.32508L9.33264 12.5074L9.37931 11.9408ZM10.4642 12.0799L10.4647 12.0805C10.7624 12.4647 11.1941 12.6526 11.7437 12.6526C12.3512 12.6526 12.827 12.393 13.1608 11.8805C13.4911 11.3734 13.6504 10.6715 13.6504 9.78589C13.6504 9.0945 13.5106 8.55134 13.2161 8.17129C12.9183 7.78707 12.4866 7.59922 11.937 7.59922C11.5386 7.59922 11.1915 7.71462 10.9011 7.94792L10.9005 7.94843C10.616 8.18077 10.4025 8.51378 10.2558 8.94002C10.109 9.36664 10.037 9.87604 10.037 10.4659C10.037 11.157 10.1745 11.6999 10.4642 12.0799ZM12.5467 8.66061L12.5467 8.66062L12.5474 8.66172C12.6863 8.86801 12.7637 9.20368 12.7637 9.68589C12.7637 10.436 12.6706 10.9917 12.4935 11.3628C12.4054 11.5474 12.3 11.6791 12.1805 11.7646C12.0621 11.8493 11.9244 11.8926 11.7637 11.8926C11.4715 11.8926 11.2677 11.7893 11.1337 11.5906C10.9989 11.384 10.9237 11.048 10.9237 10.5659C10.9237 9.82044 11.0168 9.26704 11.1938 8.89586C11.2842 8.7089 11.3913 8.57546 11.512 8.48879C11.6317 8.40287 11.7699 8.35922 11.9304 8.35922C12.2178 8.35922 12.4169 8.46217 12.5467 8.66061ZM14.4616 12.0799L14.4621 12.0805C14.7598 12.4647 15.1915 12.6526 15.7411 12.6526C16.3486 12.6526 16.8244 12.393 17.1582 11.8805C17.4885 11.3734 17.6478 10.6715 17.6478 9.78589C17.6478 9.0945 17.508 8.55134 17.2135 8.17129C16.9157 7.78707 16.484 7.59922 15.9344 7.59922C15.536 7.59922 15.1889 7.71462 14.8985 7.94792L14.8978 7.94843C14.6134 8.18077 14.3999 8.51378 14.2532 8.94002C14.1064 9.36664 14.0344 9.87604 14.0344 10.4659C14.0344 11.157 14.1719 11.6999 14.4616 12.0799ZM16.5441 8.66062L16.5448 8.66172C16.6837 8.86801 16.7611 9.20368 16.7611 9.68589C16.7611 10.436 16.668 10.9917 16.4909 11.3628C16.4027 11.5474 16.2974 11.6791 16.1779 11.7646C16.0595 11.8493 15.9218 11.8926 15.7611 11.8926C15.4689 11.8926 15.2651 11.7893 15.1311 11.5906C14.9963 11.384 14.9211 11.048 14.9211 10.5659C14.9211 9.82039 15.0142 9.26698 15.1913 8.89579C15.2816 8.70887 15.3887 8.57545 15.5094 8.48879C15.6291 8.40287 15.7673 8.35922 15.9278 8.35922C16.2152 8.35922 16.4143 8.46217 16.5441 8.66061L16.5441 8.66062Z" fill="#F5F6F6" stroke="white" stroke-width="0.2"/>
</svg>
