<svg width="57" height="56" viewBox="0 0 57 56" fill="none" xmlns="http://www.w3.org/2000/svg">
<path d="M2.5498 17.5007H25.2998L27.0498 21.0007H4.2998L2.5498 17.5007ZM4.88314 24.5007H27.6331L29.3831 28.0007H6.63314L4.88314 24.5007ZM42.7998 43.1673C44.7365 43.1673 46.2998 41.604 46.2998 39.6673C46.2998 37.7307 44.7365 36.1673 42.7998 36.1673C40.8631 36.1673 39.2998 37.7307 39.2998 39.6673C39.2998 41.604 40.8631 43.1673 42.7998 43.1673ZM46.2998 22.1673H40.4665V28.0007H50.8731L46.2998 22.1673ZM19.4665 43.1673C21.4031 43.1673 22.9665 41.604 22.9665 39.6673C22.9665 37.7307 21.4031 36.1673 19.4665 36.1673C17.5298 36.1673 15.9665 37.7307 15.9665 39.6673C15.9665 41.604 17.5298 43.1673 19.4665 43.1673ZM47.4665 18.6673L54.4665 28.0007V39.6673H49.7998C49.7998 43.5407 46.6731 46.6673 42.7998 46.6673C38.9265 46.6673 35.7998 43.5407 35.7998 39.6673H26.4665C26.4665 43.5407 23.3165 46.6673 19.4665 46.6673C15.5931 46.6673 12.4665 43.5407 12.4665 39.6673H7.79981V31.5007H12.4665V35.0007H14.2398C15.5231 33.5773 17.3898 32.6673 19.4665 32.6673C21.5431 32.6673 23.4098 33.5773 24.6931 35.0007H35.7998V14.0007H7.79981C7.79981 11.4107 9.87647 9.33398 12.4665 9.33398H40.4665V18.6673H47.4665Z" fill="#808274"/>
</svg>
