<svg width="31" height="56" viewBox="0 0 31 56" fill="none" xmlns="http://www.w3.org/2000/svg">
<g clip-path="url(#clip0_5241_271)">
<path d="M18.0085 2.9043L16.8126 4.46299L16.7939 39.4741C16.7939 39.5837 16.7048 39.6791 16.5922 39.6791L6.4858 39.7124C6.4858 39.7124 6.13876 39.4741 6.13876 38.9831C6.13876 38.4922 6.10593 38.0536 6.10593 38.0489L4.03775 37.9964C4.03775 37.9964 3.5547 41.2807 5.97931 41.6143C5.97931 41.6143 5.97931 41.6143 5.984 41.6143H25.212C25.2355 41.6143 25.273 41.6048 25.2964 41.6C25.6106 41.5524 25.9577 41.4094 26.3469 40.9804C26.8722 40.4036 26.9238 39.9222 26.9472 39.4598C26.9378 38.0393 26.8347 36.595 26.8769 35.0935C26.8816 34.9315 26.98 34.717 27.0973 34.6121L27.1629 34.5549C27.1676 34.5501 27.1723 34.5454 27.177 34.5454C27.3318 34.431 29.686 32.6673 30.563 28.7968C31.5338 24.5211 29.2686 20.5791 28.2979 18.9346C24.1896 11.9705 21.1835 7.26579 21.1835 7.26579V35.3748H23.2845V14.4968C23.2845 14.4968 25.0619 16.9612 27.6507 22.0567C27.8007 22.3475 29.4281 25.5078 28.2979 29.1257C27.7398 30.9132 25.7091 33.0725 25.7091 33.0725C25.7091 33.0725 25.0619 33.5635 25.0619 34.5501V38.8211C25.0619 38.8306 25.2214 39.6409 24.4147 39.6409H18.9183V4.41056L18.0085 2.9043Z" fill="#808274"/>
<path d="M0.829804 55.9234H0.182617V53.6211H0.829804V55.9234Z" fill="#808274"/>
<path d="M4.89135 55.9234H4.26761L3.53132 54.8128C3.49849 54.7651 3.46566 54.7127 3.43283 54.6698C3.43283 54.7365 3.43283 54.808 3.43283 54.8795V55.9234H2.78564V53.6211H3.39531L4.13629 54.6507C4.16443 54.6936 4.19726 54.7365 4.2254 54.7794C4.23009 54.7079 4.23478 54.6412 4.24416 54.5649V53.6211H4.89135V55.9234Z" fill="#808274"/>
<path d="M7.49437 55.9674C7.30209 55.9674 7.12388 55.9579 6.96911 55.9436L6.82373 55.9293V53.6889L6.96442 53.6699C7.17077 53.6413 7.37712 53.627 7.58347 53.627C8.01962 53.627 8.33852 53.7223 8.56363 53.913C8.80281 54.1132 8.92943 54.3944 8.92943 54.7519C8.92943 55.1189 8.80281 55.4288 8.56363 55.6433C8.32445 55.853 7.95865 55.9674 7.49437 55.9674ZM7.47092 55.4288C7.5225 55.4288 7.5694 55.4288 7.59285 55.4288C8.09934 55.4288 8.35259 55.2 8.35259 54.7519C8.35259 54.5755 8.30569 54.4325 8.2119 54.3372C8.09465 54.218 7.89769 54.1513 7.63975 54.1513C7.57409 54.1513 7.51781 54.1561 7.47561 54.1561V55.4288H7.47092Z" fill="#808274"/>
<path d="M11.842 56.0008C11.1713 56.0008 10.707 55.5193 10.707 54.8329C10.707 54.1227 11.1854 53.627 11.8748 53.627C12.5454 53.627 13.0097 54.1084 13.0097 54.7948C13.0097 55.5146 12.5407 56.0008 11.842 56.0008ZM11.8607 54.1608C11.4668 54.1608 11.3261 54.5183 11.3261 54.8234C11.3261 55.1285 11.4902 55.4621 11.856 55.4621C12.2265 55.4621 12.3907 55.1332 12.3907 54.8043C12.3907 54.4945 12.2218 54.1608 11.8607 54.1608Z" fill="#808274"/>
<path d="M16.9115 55.9234H16.3862L15.6499 54.8128C15.6312 54.7842 15.6124 54.7556 15.5937 54.727C15.5983 54.7651 15.6077 54.8032 15.6171 54.8461L15.6218 54.8795V55.9234H14.9746V53.6211H15.5186L16.2596 54.6507C16.269 54.665 16.2784 54.6745 16.2831 54.6888C16.2784 54.665 16.2737 54.6364 16.269 54.6126L16.2643 54.5792V53.6259H16.9115V55.9234Z" fill="#808274"/>
<path d="M19.0454 53.627H20.4992V54.1179H19.5285V54.4468H20.4992V54.9426H19.5285V55.3048H20.4992V55.9245H19.0454V53.627Z" fill="#808274"/>
<path d="M23.2098 55.9951C22.9753 55.9951 22.7221 55.9332 22.572 55.8474L22.4595 55.7806L22.633 55.2515L22.8018 55.3469C22.9238 55.4136 23.0832 55.4565 23.2239 55.4565C23.2942 55.4565 23.5147 55.4422 23.5147 55.2849C23.5147 55.2277 23.5147 55.1514 23.2145 55.0466C23.0504 54.9941 22.5345 54.8273 22.5345 54.3316C22.5345 53.9264 22.8956 53.6309 23.3974 53.6309C23.6835 53.6309 23.8664 53.7024 23.9508 53.7453L24.0774 53.812L23.8852 54.3268L23.7257 54.2458C23.6694 54.2172 23.5475 54.1695 23.3834 54.1695C23.2145 54.1695 23.1348 54.2362 23.1348 54.303C23.1348 54.3554 23.1348 54.4174 23.4584 54.5318C23.7679 54.6414 24.1196 54.8225 24.1196 55.2706C24.129 55.6281 23.843 55.9951 23.2098 55.9951Z" fill="#808274"/>
<path d="M26.6145 55.9234H25.9673V53.6211H26.6145V55.9234Z" fill="#808274"/>
<path d="M30.5068 55.9234H29.8971L29.6532 55.2656H29.067L28.8278 55.9234H28.2275L29.0858 53.6211H29.6438L30.5068 55.9234ZM29.2124 54.8795H29.5125L29.3625 54.4743L29.2124 54.8795Z" fill="#808274"/>
<path d="M30.3147 51.4435V51.5674C30.1928 51.5674 30.1365 51.5245 30.0802 51.4673H26.2393H25.836C25.836 51.1336 26.0799 51.2623 26.2393 50.6808V45.9427C26.0799 45.3612 25.8313 45.4899 25.836 45.1562H28.0965C28.0965 45.5233 27.801 45.3326 27.6463 46.1382V50.1136L29.963 50.0897C30.4367 50.0039 30.4085 49.5511 30.6711 49.6035L30.3147 51.4435Z" fill="#808274"/>
<path d="M18.0042 51.4435V51.5674C17.8822 51.5674 17.826 51.5245 17.7697 51.4673H13.9288H13.5255C13.5255 51.1336 13.7693 51.2623 13.9288 50.6808V45.9427C13.7693 45.3612 13.5208 45.4899 13.5255 45.1562H15.7906C15.7906 45.5233 15.4952 45.3326 15.3404 46.1382V50.1136L17.6571 50.0897C18.1308 50.0039 18.1027 49.5511 18.3653 49.6035L18.0042 51.4435Z" fill="#808274"/>
<path d="M5.95136 51.3765H3.68621C3.68621 51.0285 3.9629 51.1906 4.11766 50.4756V48.8073L1.84782 49.0456L1.83844 50.5137C1.9932 51.1858 2.26521 51.0333 2.26521 51.3765H5.51725e-05C5.51725e-05 51.019 0.29082 51.2001 0.440892 50.4279V46.0951C0.29082 45.3229 -0.00463459 45.4992 5.51725e-05 45.1465H2.26521C2.26521 45.4849 1.99789 45.3372 1.84313 45.9997L1.84782 47.811L4.13642 47.5632L4.12235 46.0474C3.96759 45.3276 3.68621 45.4945 3.6909 45.1465H5.95605C5.95605 45.4992 5.66528 45.3229 5.51521 46.0855V50.4327C5.66528 51.2001 5.95605 51.0238 5.95136 51.3765Z" fill="#808274"/>
<path d="M25.1604 51.1906L22.6608 45.1465L21.8073 45.1512V45.1465H21.3148C20.6911 45.1465 21.3195 45.3133 21.3008 45.6517L19.2654 51.081C18.9981 51.4242 18.8809 51.2144 18.8809 51.4766H19.106H20.527H20.813C20.813 51.3145 20.6301 51.3765 20.7099 51.0524L21.0381 50.2659L23.2189 50.1372L23.5237 51.081C23.6175 51.4337 23.4018 51.2335 23.3924 51.4814H23.6879H24.9166H25.1651H25.3996C25.4231 51.3336 25.2683 51.2907 25.1604 51.1906ZM21.4696 49.1505L22.1027 47.6061L22.7405 49.0456L21.4696 49.1505Z" fill="#808274"/>
<path d="M12.7703 51.1906L10.2707 45.1465L9.41713 45.1512V45.1465H8.92471C8.30097 45.1465 8.9294 45.3133 8.91064 45.6517L6.87528 51.081C6.60797 51.4242 6.49072 51.2144 6.49072 51.4766H6.71583H8.13683H8.4229C8.4229 51.3145 8.24 51.3765 8.31973 51.0524L8.64801 50.2659L10.8287 50.1372L11.1336 51.081C11.2274 51.4337 11.0116 51.2335 11.0023 51.4814H11.2977H12.5264H12.775H13.0095C13.0282 51.3336 12.8782 51.2907 12.7703 51.1906ZM9.07947 49.1505L9.71259 47.6061L10.3504 49.0456L9.07947 49.1505Z" fill="#808274"/>
<path d="M11.9634 35.4933H14.1066V8.9668L11.9634 12.1605V35.4933Z" fill="#808274"/>
<path d="M16.5878 0.868816C14.3273 4.30558 12.0622 7.74234 9.80173 11.1791C9.80173 19.2634 9.80173 27.3524 9.80173 35.4366C8.22597 35.47 6.6549 35.4986 5.07914 35.532C4.82121 35.4223 4.47886 35.2555 4.10368 35.0172C3.98643 34.9409 3.41897 34.5739 2.78585 33.9304C2.18557 33.3155 1.82914 32.7578 1.73066 32.5957C1.4352 32.119 1.28513 31.7568 1.03189 31.1419C0.623876 30.1504 0.487873 29.5117 0.440976 29.2829C0.319042 28.6632 0.295593 28.2056 0.267455 27.6288C0.220557 26.6183 0.276834 25.8699 0.286214 25.7031C0.300283 25.541 0.36594 24.7498 0.562909 23.825C0.914641 22.1996 1.49617 20.9651 1.99329 19.9212C2.70613 18.434 3.37207 17.3805 4.12712 16.1984C4.83528 15.0878 5.47308 14.1916 5.92799 13.5672C5.92799 14.8065 5.93268 16.0506 5.93268 17.29C5.54343 17.8286 5.08384 18.515 4.62893 19.3539C4.45072 19.6781 3.97705 20.5647 3.47056 21.8707C2.78116 23.6582 2.39191 24.6735 2.29343 26.1321C2.25122 26.7708 2.17619 28.115 2.73427 29.6833C3.07193 30.6271 3.4987 31.2706 3.64408 31.4755C4.30534 32.4241 5.06039 33.0152 5.5575 33.3488C6.29848 33.3488 7.04415 33.3488 7.78513 33.3488C7.77107 25.7794 7.757 18.2147 7.74293 10.6452C11.4572 4.86804 14.2007 0.654317 14.4821 0.325417C14.6885 0.0775509 14.9276 0.0298843 14.9276 0.0298843C15.0871 -0.0320822 15.2465 0.0155843 15.3825 0.0537176C15.5608 0.106151 15.6827 0.196717 15.9266 0.36355C16.0813 0.473184 16.3299 0.644783 16.5878 0.868816Z" fill="#808274"/>
</g>
<defs>
<clipPath id="clip0_5241_271">
<rect width="30.8" height="56" fill="white"/>
</clipPath>
</defs>
</svg>
