<svg width="57" height="56" viewBox="0 0 57 56" fill="none" xmlns="http://www.w3.org/2000/svg">
<path d="M28.7999 8.18105L31.6754 10.6759C32.5802 11.4608 33.7955 11.7864 34.9715 11.559L38.7092 10.8362L39.9521 14.4346C40.3431 15.5667 41.2328 16.4564 42.3649 16.8474L45.9633 18.0903L45.2405 21.828C45.0131 23.004 45.3387 24.2193 46.1236 25.1241L48.6185 27.9996L46.1237 30.8752C45.3387 31.7799 45.0131 32.9952 45.2405 34.1712L45.9633 37.9089L42.3649 39.1518C41.2328 39.5428 40.3431 40.4325 39.9521 41.5646L38.7092 45.163L34.9715 44.4402C33.7955 44.2128 32.5802 44.5384 31.6755 45.3234L28.7999 47.8182L25.9244 45.3234C25.0196 44.5384 23.8043 44.2128 22.6283 44.4402L18.8906 45.163L17.6477 41.5646C17.2567 40.4325 16.367 39.5428 15.2349 39.1518L11.6365 37.9089L12.3593 34.1712C12.5867 32.9952 12.2611 31.7799 11.4762 30.8752L8.98134 27.9996L11.4762 25.1241C12.2611 24.2193 12.5867 23.004 12.3593 21.828L11.6365 18.0903L15.2349 16.8474C16.367 16.4564 17.2567 15.5667 17.6477 14.4346L15.8047 13.798L17.6477 14.4346L18.8906 10.8362L22.6283 11.559C23.8043 11.7864 25.0196 11.4608 25.9244 10.6759L28.7999 8.18105Z" stroke="#808274" stroke-width="3.89973"/>
<path d="M21.7998 27.856L26.9737 33.6008L35.7998 23.8008" stroke="#808274" stroke-width="3.89973" stroke-linecap="round" stroke-linejoin="round"/>
</svg>
